<svg id="Layer_1" data-name="Layer 1" xmlns="http://www.w3.org/2000/svg" viewBox="0 0 939.32 171.301"><title>fe-logo-color</title><rect x="340.529" y="38.558" width="10.943" height="96.919" fill="#cc1b26"/><rect x="488.093" y="38.558" width="83.959" height="10.942" fill="#cc1b26"/><path d="M633.006,535.9c13.2-.728,24.068-11.409,24.533-24.433a25.4,25.4,0,0,0-25.382-26.322H571.043v10.942h61.114a14.471,14.471,0,0,1,14.455,14.455c0,8.241-5.792,14.455-13.473,14.455h-62.1v57.067h10.943V535.938h31.3a14.515,14.515,0,0,1,12.693,7.479l21.41,38.646h11.19Z" transform="translate(-188.347 -446.587)" fill="#cc1b26"/><path d="M420.227,492.906a25.179,25.179,0,0,1,18.275-7.762h61.115v10.942H438.5a14.471,14.471,0,0,0-14.455,14.455c0,.313.024.618.041.925H413.121A25.209,25.209,0,0,1,420.227,492.906Z" transform="translate(-188.347 -446.587)" fill="#cc1b26"/><path d="M438.5,525a25.4,25.4,0,0,0-25.381,26.3l-.037.023v30.745h10.941l.063-30.745c-.017-.308-.041-.612-.041-.925A14.471,14.471,0,0,1,438.5,535.938h61.115V525Z" transform="translate(-188.347 -446.587)" fill="#cc1b26"/><path d="M676.44,525.011v30.73l.037.023a25.4,25.4,0,0,0,25.381,26.3H760.4V571.121H701.858A14.471,14.471,0,0,1,687.4,556.666c0-.313-.016-.617,0-.925V535.968h73V525.011Z" transform="translate(-188.347 -446.587)" fill="#cc1b26"/><path d="M315.7,481.9a2.654,2.654,0,0,0,3.175-2.46c.383-7.6-.052-26.257-12.509-30.868-16.154-5.98-42.207,2.4-62.2,13.785-20.24,11.527-45.679,38.519-55.82,65.99,0,0,37.616-32.532,76.249-42.019C293.7,479.18,309.62,480.711,315.7,481.9Z" transform="translate(-188.347 -446.587)" fill="#cc1b26"/><path d="M220.948,529.385a2.655,2.655,0,0,0-3.718-1.52c-6.775,3.47-22.714,13.174-20.478,26.268,2.9,16.98,23.182,35.352,43.037,46.972,20.1,11.765,56.2,20.3,85.059,15.347,0,0-46.982-16.311-74.514-45.024C229.59,549.794,222.957,535.244,220.948,529.385Z" transform="translate(-188.347 -446.587)" fill="#cc1b26"/><path d="M309.842,588.419a2.655,2.655,0,0,0,.543,3.98c6.392,4.132,22.766,13.084,32.988,4.6,13.255-11,19.024-37.752,19.16-60.757.137-23.293-10.519-58.819-29.239-81.337,0,0,9.365,48.843-1.735,87.043C323.2,570.731,313.911,583.749,309.842,588.419Z" transform="translate(-188.347 -446.587)" fill="#cc1b26"/><rect x="596.173" y="38.558" width="86.534" height="10.942" fill="#64666b"/><rect x="808.415" y="38.558" width="86.533" height="10.942" fill="#64666b"/><path d="M784.52,525.011v30.73l.037.023a25.4,25.4,0,0,0,25.381,26.3h61.115V571.121H809.938a14.471,14.471,0,0,1-14.455-14.455c0-.313-.017-.617,0-.925V535.968h75.57V525.011Z" transform="translate(-188.347 -446.587)" fill="#64666b"/><path d="M996.761,525.011v30.73l.038.023a25.4,25.4,0,0,0,25.38,26.3h61.115V571.121h-61.115a14.471,14.471,0,0,1-14.455-14.455c0-.313-.016-.617,0-.925V535.968h75.57V525.011Z" transform="translate(-188.347 -446.587)" fill="#64666b"/><polygon points="785.545 38.557 745.39 82.146 705.235 38.557 691.119 38.557 739.917 91.513 739.917 135.477 750.862 135.477 750.862 91.513 799.66 38.557 785.545 38.557" fill="#64666b"/><path d="M1102.33,487.625H1097.5v-2.481h12.36v2.481h-4.831v12.751h-2.7Z" transform="translate(-188.347 -446.587)" fill="#64666b"/><path d="M1112.7,485.144h2.85l4.635,7.2,4.635-7.2h2.851v15.232h-2.678V489.453l-4.808,7.181h-.087l-4.765-7.137v10.879H1112.7Z" transform="translate(-188.347 -446.587)" fill="#64666b"/></svg>